<?xml version="1.0" encoding="UTF-8"?>
<svg xmlns="http://www.w3.org/2000/svg" width="184" height="38" viewBox="0 0 184 38" fill="none"><path d="M38 .988H0V37.88h38V.988z" fill="url(#paint0_linear)"/><path d="M36.822 19.65c0 7.704.365 15.584.365 15.584-.013.887-.595 1.453-1.333 1.453H2.965c-.738 0-1.246-.638-1.334-1.453 0 0-.947-6.73-.947-17.016 0-10.286.947-15.124.947-15.124.115-.848.603-1.452 1.334-1.452h32.889c.738 0 1.347.663 1.333 1.452 0-.006-.365 8.853-.365 16.557z" fill="url(#paint1_linear)"/><path d="M29.502 10.954c-2.349 1.335-3.067 1.446-5.619 2.932l.122-.276c1.34-1.42 1.923-2.012 2.803-3.267-2.356.125-5.768.394-8.212.92l.128-.256c2.214-1.045 6.33-2.084 8.429-2.353-.514-.697-4.678-2.885-5.72-3.313l.121-.256c3.162.348 7.346 1.781 9.174 2.866.771-.237 1.557-.257 2.985-.382 0 0-.21.835-1.767 1.874.386 1.005-.541 6.566-1.306 8.045-.034-2.327-.244-5.259-1.138-6.534z" fill="url(#paint2_linear)"/><path d="M12.335 30.89l.122-.257c-1.245-.473-2.498-.841-3.507-1.768.319-.86.684-1.531 1.273-2.379l.122-.263c-1.07.158-2.045.54-2.972.716-.731-1.248-1.016-2.957-1.381-4.58l-.122.256c-.21 1.853-.291 3.18-.02 4.66-.772.21-1.449.236-2.072.493l-.122.256c.989.591 1.801 1.045 2.918 1.558.596 1.248 1.219 2.09 2.22 3.056l.123-.256c-.183-.71-.413-1.295-.325-2.077 1.259.355 2.329.545 3.743.585z" fill="url(#paint3_linear)"/><path d="M15.8 12.363s-.5.861-.9 2.011h-.095c2.925.382 5.687 1.532 6.384 1.933l-.122.256c-3.04-.52-4.637-.46-5.768-.361-1.13.105-1.36.243-1.36.243-.65 1.38-1.036 3.641-1.185 4.476l-.122.256c-.555-1.295-1.354-3.884-1.354-3.884-1.53.795-5.057 4.009-5.057 4.009 1.943-3.766 3.913-5.488 3.913-5.488-.677-.664-2.451-1-3.744-1.052l.122-.256c.812-.23 2.484-.329 3.608-.381 1.327-.04 2.133.033 2.133.033 1.164-.907 2.931-1.71 3.547-1.795z" fill="url(#paint4_linear)"/><path d="M19.524 28.553a28.887 28.887 0 01-1.814 2.183c-1.002.269-2.2.144-3.121.177l-.122.256a8.091 8.091 0 002.105.704c-.589.519-1.38.92-1.93 1.281l-.121.257c1.185-.27 2.749-.763 3.913-1.427a7.21 7.21 0 001.584-.092s.122-.263.122-.256c-.074-.263-.311-.42-.386-.782 1.09-.822 1.882-1.571 2.796-2.465l.129-.256c-.9.605-1.997 1.433-3.053 1.919-.041-.506-.075-.933-.102-1.498z" fill="url(#paint5_linear)"/><path d="M29.624 10.69c-2.342 1.341-3.06 1.453-5.612 2.932 1.483-1.565 2.004-2.228 2.918-3.536-2.35.118-5.768.394-8.205.92 2.125-1.098 6.33-2.327 8.557-2.616-.515-.69-4.685-2.885-5.72-3.306 3.303.25 7.338 1.446 9.294 2.61.772-.237 1.571-.244 3.006-.369-.365.611-.379.96-1.787 1.867.393 1.012-.542 6.572-1.307 8.045-.033-2.333-.243-5.271-1.144-6.547zM12.457 30.634c-1.348-.487-2.316-1.052-3.386-2.018.319-.855.684-1.525 1.28-2.386a64.848 64.848 0 00-2.85.453c-.765-1.308-1.117-2.563-1.51-4.318-.21 1.86-.291 3.188-.02 4.667-.867.236-1.483.44-2.194.75 1.002.59 1.808 1.05 2.918 1.557.603 1.249 1.219 2.09 2.228 3.056a5.539 5.539 0 01-.204-2.333c1.253.341 2.322.526 3.738.572zM15.964 12.145c-.42.525-.907 1.518-1.036 1.971 3.473.454 6.262 2.189 6.262 2.189-3.04-.526-4.637-.46-5.768-.361-1.123.105-1.354.23-1.354.23-.819 1.741-1.313 4.732-1.313 4.732C12.2 19.61 11.4 17.02 11.4 17.02c-1.53.796-5.057 4.016-5.057 4.016 1.936-3.766 3.906-5.481 3.906-5.481-.677-.664-2.45-1-3.75-1.052.67-.27 2.403-.578 3.73-.637 1.327-.04 2.132.039 2.132.039 1.185-.907 2.986-1.67 3.602-1.761zM19.646 28.296a28.664 28.664 0 01-1.821 2.182 11.598 11.598 0 01-3.243.434 8.36 8.36 0 002.105.71 14.56 14.56 0 01-2.058 1.538c1.185-.276 2.749-.763 3.914-1.433.609.02 1.178-.013 1.59-.099a8.678 8.678 0 01-.264-1.038c1.097-.822 1.89-1.571 2.803-2.465a18.961 18.961 0 01-2.925 1.663c-.047-.5-.074-.927-.101-1.492z" fill="#fff"/><path d="M47.558 13.155c.081 1.34.163 4.732.163 5.968 0 1.137 0 4.949-.204 6.598l-.013.132h6.14c3.013 0 6.208-.914 6.208-3.51 0-1.63-1.211-2.833-3.486-3.49 1.686-.44 2.81-1.558 2.81-2.833 0-2.123-2.512-2.918-4.875-2.977h-6.77l.027.112zm4.732 1.301c2.56.02 3.494.526 3.494 1.88 0 .375-.115.703-.346.96-.487.571-1.442.867-2.66.795h-.061l-.718 1.807h.718c1.415-.04 2.64.395 3.27 1.144.29.342.44.75.44 1.17 0 1.413-1.28 2.142-3.812 2.142-.426 0-1.117 0-1.55-.013a167.669 167.669 0 01-.102-5.212c0-.887.061-2.872.102-4.568.291-.066.779-.105 1.225-.105zM74.002 13.04h-2.986l.122 3.235c.061 1.597.115 3.24.23 4.83-.19-.5-.372-.756-1.28-2.037-.006-.046-3.106-4.68-4.183-5.994l-.034-.033h-3.466v.118c.108 1.34.156 4.732.156 5.968 0 1.137 0 4.95-.163 6.599l-.027.131h3.087v-.131c-.176-3.129-.176-6.284-.176-9.346.109.368.244.69.731 1.387.041.085 5.355 7.597 5.62 8.031l.026.053h2.472l-.007-.132c-.19-1.643-.203-5.455-.203-6.599 0-1.235.088-4.627.162-5.968l.04-.118h-.121v.007zM77.568 13.155c.122 1.34.17 4.732.17 5.968 0 1.137 0 4.949-.183 6.598v.132h3.676l-.014-.132c-.122-1.183-.19-3.437-.203-5.166.176.007.69.033.69.033l.522.014c4.834 0 7.183-1.243 7.183-3.852 0-2.97-3.297-3.655-6.046-3.707h-5.788v.112h-.007zm4.53 1.426c1.719-.033 2.924.309 3.493 1.006.264.302.406.696.406 1.156 0 1.854-2.146 2.255-3.947 2.255l-.731-.04s-.176-.013-.298-.026c-.014-.427-.014-.992-.014-1.63 0-.808 0-1.761.041-2.649.257-.026.636-.072 1.05-.072zM96.419 13.155c.115 1.34.183 4.732.183 5.968 0 1.137-.014 4.949-.204 6.598v.132h3.677l-.021-.132c-.115-1.183-.183-3.437-.183-5.166.17.007.664.033.664.033l.535.014c4.827 0 7.203-1.243 7.203-3.852 0-2.97-3.317-3.655-6.073-3.707h-5.775v.112h-.006zm4.522 1.426c1.726-.033 2.925.309 3.5 1.006.264.302.4.696.4 1.156 0 1.854-2.146 2.255-3.92 2.255l-.725-.033s-.196-.013-.304-.026c-.02-.428-.02-1-.02-1.63 0-.815 0-1.762.033-2.65.23-.032.63-.078 1.036-.078zM113.18 13.04h-.048l-.027.067c-.684 1.82-5.091 11.16-5.788 12.586l-.061.158h3.128l.027-.072c.277-.881.643-1.867 1.049-2.925.129 0 2.613-.04 2.613-.04l2.16.013s.345.02.453.02c.556 1.38.982 2.412 1.172 2.945l.034.052h3.622l-5.857-12.81h-2.477v.007zm.893 3.773c.291.612 1.05 2.314 1.903 4.345-.136.006-.298.006-.298.006l-1.605.02s-1.665-.02-1.943-.026c.691-1.623 1.381-3.09 1.943-4.345zM122.989 13.16c.108 1.34.155 4.732.155 5.967 0 1.137.001 4.95-.203 6.6v.13h3.697l-.014-.13c-.196-1.657-.21-5.456-.21-6.6 0-.887.027-2.872.122-4.482.278-.02.704-.06.995-.06 1.706-.032 2.918.31 3.48 1.006.271.303.393.71.393 1.157 0 1.479-1.422 2.228-2.749 2.294-.447.02-.772-.04-.772-.04l-.257-.04.142.238c1.314 1.853 3.277 5.074 4.083 6.599l.027.052h3.947l-.095-.17a823.876 823.876 0 01-3.825-5.463s-.048-.046-.095-.098c2.024-.592 2.999-1.69 2.999-3.372 0-2.951-3.297-3.654-6.079-3.707h-5.755l.014.118zM141.053 13.041h-3.52l.02.118c.088 1.341.163 4.733.163 5.968 0 1.13-.014 4.943-.183 6.6l-.013.13h3.649l-.021-.13c-.142-1.657-.183-5.463-.183-6.6 0-1.235.088-4.627.183-5.968v-.118h-.095zM144.49 13.155c.108 1.34.169 4.732.169 5.968 0 1.137 0 4.949-.183 6.598l-.027.132h6.147c3.006 0 6.208-.914 6.208-3.51 0-1.63-1.218-2.833-3.506-3.49 1.685-.44 2.823-1.558 2.823-2.833 0-2.123-2.512-2.918-4.854-2.977h-6.784l.007.112zm4.739 1.301c2.579.02 3.513.526 3.513 1.88 0 .375-.115.703-.352.96-.467.571-1.455.867-2.667.795h-.061l-.711 1.807h.711c1.415-.04 2.634.395 3.263 1.144.305.342.454.75.454 1.17 0 1.413-1.286 2.142-3.832 2.142-.406 0-1.097 0-1.53-.013-.108-1.886-.108-4.443-.108-5.212 0-.887.034-2.872.108-4.568.284-.066.772-.105 1.212-.105zM165.838 13.041h-2.471l-.014.06c-.738 1.938-5.395 11.764-5.781 12.58l-.068.17h3.148l.02-.079c.264-.88.63-1.866 1.036-2.944.102 0 2.6-.04 2.6-.04l2.166.033s.379.007.461.007c.568 1.38.988 2.425 1.178 2.944l.033.079h3.643l-5.856-12.81h-.095zm-1.517 3.766c.298.598 1.05 2.3 1.903 4.338-.129 0-.291.013-.291.013l-1.612.02s-1.685-.033-1.936-.033a110.855 110.855 0 011.936-4.338zM172.797 16.35c0 2.247 2.322 3.154 4.38 3.983 1.598.617 3.277 1.268 3.277 2.346 0 .322-.068.598-.251.789-.386.44-1.164.624-2.403.558-1.225-.046-2.607-.42-4.164-1.117l-.609-.283v2.794l.413.098.244.04c.765.184 2.247.526 3.723.526 3.873 0 6.188-1.499 6.188-3.983 0-2.334-2.39-3.234-4.495-4.056-1.557-.61-3.162-1.216-3.162-2.215 0-.289 0-1.13 2.011-1.13 1.482 0 2.918.585 3.737.887l.745.303-.007-.48v-2.32l-.738-.132c-.752-.145-2.011-.388-3.304-.388-3.351 0-5.585 1.532-5.585 3.78z" fill="#000"/><defs><linearGradient id="paint0_linear" x1="18.999" y1=".081" x2="18.999" y2="39.022" gradientUnits="userSpaceOnUse"><stop stop-color="#00774A"/><stop offset=".6" stop-color="#8CCAAE"/><stop offset="1" stop-color="#00975F"/></linearGradient><linearGradient id="paint1_linear" x1="18.939" y1="-8.173" x2="18.939" y2="35.586" gradientUnits="userSpaceOnUse"><stop stop-color="#00975F"/><stop offset=".3" stop-color="#8CCAAE"/><stop offset=".55" stop-color="#00975F"/><stop offset=".835" stop-color="#00774A"/><stop offset=".869" stop-color="#007C4E"/><stop offset=".924" stop-color="#00895A"/><stop offset=".994" stop-color="#009E6E"/><stop offset="1" stop-color="#00A070"/></linearGradient><linearGradient id="paint2_linear" x1="26.157" y1="33.169" x2="26.157" y2="4.852" gradientUnits="userSpaceOnUse"><stop stop-color="#00A97C"/><stop offset="1" stop-color="#00975F"/></linearGradient><linearGradient id="paint3_linear" x1="8.062" y1="33.165" x2="8.062" y2="4.839" gradientUnits="userSpaceOnUse"><stop stop-color="#00A97C"/><stop offset="1" stop-color="#00975F"/></linearGradient><linearGradient id="paint4_linear" x1="13.698" y1="33.16" x2="13.698" y2="4.852" gradientUnits="userSpaceOnUse"><stop stop-color="#00A97C"/><stop offset="1" stop-color="#00975F"/></linearGradient><linearGradient id="paint5_linear" x1="18.573" y1="33.166" x2="18.573" y2="4.849" gradientUnits="userSpaceOnUse"><stop stop-color="#00A97C"/><stop offset="1" stop-color="#00975F"/></linearGradient></defs></svg>