<?xml version="1.0" encoding="UTF-8" standalone="no"?>
<svg
   width="146.60201"
   height="18"
   viewBox="0 0 146.60201 18"
   fill="none"
   version="1.1"
   id="svg1"
   sodipodi:docname="logo-bs.svg"
   inkscape:version="1.3.2 (091e20ef0f, 2023-11-25, custom)"
   xmlns:inkscape="http://www.inkscape.org/namespaces/inkscape"
   xmlns:sodipodi="http://sodipodi.sourceforge.net/DTD/sodipodi-0.dtd"
   xmlns="http://www.w3.org/2000/svg"
   xmlns:svg="http://www.w3.org/2000/svg">
  <defs
     id="defs1" />
  <sodipodi:namedview
     id="namedview1"
     pagecolor="#ffffff"
     bordercolor="#000000"
     borderopacity="0.25"
     inkscape:showpageshadow="2"
     inkscape:pageopacity="0.0"
     inkscape:pagecheckerboard="0"
     inkscape:deskcolor="#d1d1d1"
     inkscape:zoom="4.2755125"
     inkscape:cx="117.29588"
     inkscape:cy="31.925998"
     inkscape:window-width="1920"
     inkscape:window-height="1053"
     inkscape:window-x="0"
     inkscape:window-y="0"
     inkscape:window-maximized="1"
     inkscape:current-layer="svg1" />
  <path
     fill-rule="evenodd"
     clip-rule="evenodd"
     d="M 66.7191,0.046399 C 66.5696,0.0750013 66.3485,0.117288 66.1324,0.154539 65.8128,0.215162 65.3553,0.341921 65.1128,0.430102 64.8703,0.523793 64.5341,0.678108 64.3688,0.766289 64.2035,0.85998 63.9279,1.02532 63.7626,1.14105 63.5972,1.25128 63.3162,1.48275 63.1398,1.6536 62.969,1.82445 62.7209,2.11655 62.5942,2.30944 62.4674,2.49682 62.28,2.84955 62.1808,3.09204 c -0.0992,0.2425 -0.2204,0.63931 -0.27,0.8818 -0.0717,0.33619 -0.0827,0.61175 -0.0606,1.15737 0.0165,0.39681 0.0716,0.86526 0.1212,1.04714 0.0496,0.18187 0.2039,0.56766 0.3417,0.85424 0.2205,0.44641 0.3362,0.60073 0.7826,1.05265 0.496,0.49602 0.5732,0.55113 1.2731,0.88732 0.4078,0.1984 1.0031,0.45192 1.3227,0.55663 0.3197,0.10472 1.1023,0.32517 1.7361,0.48501 0.6338,0.1543 1.3557,0.3582 1.5982,0.4464 0.2425,0.0882 0.6614,0.2811 0.9369,0.4189 0.2921,0.1543 0.6173,0.3802 0.8047,0.5621 0.2094,0.2021 0.3766,0.4317 0.5015,0.6889 0.1653,0.3527 0.1819,0.4299 0.1819,0.9094 0,0.4794 -0.0166,0.5566 -0.1874,0.9093 -0.1157,0.2425 -0.2866,0.4905 -0.4685,0.6614 -0.1543,0.1543 -0.4794,0.3803 -0.7219,0.507 -0.2425,0.1213 -0.6173,0.2811 -0.8267,0.3417 -0.2095,0.0661 -0.6228,0.1433 -0.9094,0.1709 -0.3362,0.033 -0.744,0.033 -1.1298,-0.0056 -0.3307,-0.0275 -0.8157,-0.1047 -1.0747,-0.1653 -0.259,-0.0606 -0.6558,-0.1874 -0.8818,-0.2866 -0.2259,-0.0937 -0.6228,-0.3141 -0.8818,-0.485 -0.259,-0.1708 -0.6172,-0.4409 -0.7991,-0.6007 -0.1819,-0.1543 -0.4244,-0.3307 -0.5401,-0.3913 -0.1102,-0.0551 -0.3142,-0.1047 -0.4519,-0.1047 -0.1378,0 -0.3307,0.0331 -0.4244,0.0716 -0.0992,0.0441 -0.2645,0.1488 -0.3693,0.237 -0.1047,0.0882 -0.2369,0.2591 -0.2866,0.3803 -0.0551,0.1212 -0.1047,0.3527 -0.1047,0.5125 0,0.1874 0.0386,0.3693 0.1158,0.5236 0.0661,0.1268 0.2645,0.3693 0.4354,0.5346 0.1763,0.1653 0.5125,0.4464 0.7495,0.6173 0.2425,0.1708 0.6724,0.4354 0.9589,0.5842 0.2866,0.1543 0.7441,0.3527 1.0196,0.4519 0.2756,0.0937 0.6559,0.2094 0.8543,0.2535 0.1984,0.0441 0.6007,0.1157 0.8983,0.1598 0.2921,0.0441 0.8653,0.0827 1.2676,0.0827 0.3968,0 0.9755,-0.0386 1.2786,-0.0827 0.3031,-0.0441 0.7716,-0.1433 1.0472,-0.2204 0.2755,-0.0827 0.6723,-0.226 0.8818,-0.3252 0.2094,-0.0992 0.5621,-0.2866 0.7715,-0.4244 0.2095,-0.1377 0.5126,-0.3582 0.6614,-0.4905 0.1543,-0.1267 0.4078,-0.3857 0.5621,-0.5731 0.1599,-0.1819 0.3858,-0.5236 0.5071,-0.7496 0.1212,-0.2259 0.2755,-0.6007 0.3472,-0.8266 0.1157,-0.3693 0.1267,-0.5181 0.1267,-1.4054 0,-0.7881 -0.022,-1.0637 -0.0992,-1.3503 C 73.7214,11.3534 73.5836,10.9952 73.4679,10.7527 73.3522,10.5102 73.1317,10.1575 72.9774,9.97009 72.8176,9.7772 72.5475,9.51266 72.3767,9.37488 72.2003,9.2371 71.8476,9.01665 71.5886,8.88438 71.3295,8.75762 70.8445,8.55921 70.5139,8.44899 70.1832,8.34427 69.4833,8.12933 68.9707,7.97502 68.4582,7.8207 67.5874,7.54514 67.0418,7.36327 66.4962,7.17588 65.8293,6.92237 65.5537,6.7901 65.1624,6.60271 64.9971,6.48147 64.7656,6.22795 64.5838,6.02403 64.4294,5.78705 64.3633,5.59966 64.2917,5.40677 64.2476,5.15325 64.2476,4.91076 c 0,-0.20943 0.0275,-0.49602 0.0661,-0.6338 0.0386,-0.13778 0.1212,-0.35823 0.1929,-0.49601 0.0716,-0.13778 0.27,-0.38579 0.4464,-0.55664 0.1874,-0.17636 0.4795,-0.38028 0.6834,-0.47397 0.1984,-0.09369 0.5456,-0.21494 0.7716,-0.26454 0.2425,-0.05511 0.744,-0.11022 1.2125,-0.12676 0.507,-0.01653 0.9534,0 1.2124,0.04409 0.226,0.03858 0.6118,0.13778 0.8543,0.22045 0.2425,0.08267 0.6007,0.23148 0.7991,0.33068 0.1984,0.0992 0.5401,0.30863 0.7606,0.46294 0.0909,0.06209 0.1907,0.13132 0.2858,0.19727 0.1413,0.09797 0.2722,0.18872 0.348,0.23812 0.1267,0.08267 0.3306,0.16534 0.4519,0.18739 0.1267,0.01653 0.3141,0 0.4409,-0.04409 0.1212,-0.03858 0.3251,-0.17085 0.4574,-0.2921 C 73.3907,3.54947 73.4955,3.38414 73.5561,3.20227 73.6277,2.96528 73.6332,2.88261 73.5726,2.62358 73.512,2.35353 73.4569,2.27637 73.0821,1.90712 72.8506,1.68116 72.4649,1.3615 72.2224,1.20168 71.9799,1.03634 71.5941,0.81589 71.3681,0.711176 71.1422,0.600951 70.7784,0.452147 70.569,0.3805 70.3596,0.308854 69.9462,0.198629 69.6596,0.138005 69.2628,0.0553359 68.877,0.0222683 68.0889,0.00573457 67.5102,-0.00528795 66.9646,2.2330447e-4 66.8764,0.0167571 66.8461,0.0221156 66.7908,0.0326842 66.7191,0.046399 Z M 1.37511,0.24823 C 0.97279101,0.275786 0.79091901,0.314365 0.58149101,0.419079 c -0.170849,0.08818 -0.325164,0.220451 -0.413344,0.352721 -0.121248,0.187383 -0.143293,0.28107 -0.143293,0.64482 0,0.38579 0.0165337,0.44641 0.165338,0.66686 0.093691,0.12676 0.281074,0.29761 0.413344,0.37477 l 0.248007,0.13778 C 8.64998,2.65114 8.79878,2.65665 9.06332,2.76136 9.21764,2.8275 9.44911,2.93773 9.58689,3.02039 c 0.13778,0.07716 0.37477,0.27557 0.52361,0.4409 0.1543,0.16534 0.3361,0.42437 0.4078,0.57318 0.0772,0.1488 0.1653,0.39681 0.2094,0.54561 0.0386,0.15432 0.0717,0.42437 0.0717,0.60624 0,0.18187 -0.0386,0.47948 -0.0882,0.66135 -0.0441,0.18187 -0.1488,0.45192 -0.2315,0.60624 -0.0827,0.1488 -0.27,0.39681 -0.4244,0.55113 C 9.90103,7.15935 9.60894,7.36878 9.394,7.479 9.17355,7.59474 8.84287,7.70497 8.62242,7.74354 8.34686,7.78763 7.45954,7.80417 5.56367,7.79315 3.00093,7.77661 2.8852,7.7711 2.71435,7.66639 2.61515,7.60576 2.50492,7.479 2.46634,7.39082 2.43327,7.30264 2.40021,7.16486 2.40021,7.0877 2.40021,7.01055 2.43879,6.86725 2.48288,6.76805 2.53248,6.65231 2.63168,6.55311 2.75293,6.498 2.91827,6.42084 3.35917,6.40431 5.79514,6.37675 L 8.63895,6.34368 C 9.00821,6.08465 9.17906,5.89727 9.2507,5.765 9.34439,5.59415 9.38297,5.4233 9.38848,5.21388 9.38848,4.99342 9.34991,4.8336 9.2507,4.63519 9.17355,4.48088 9.03025,4.30452 8.92003,4.23287 8.81531,4.16122 8.64447,4.08407 8.53975,4.05651 8.42953,4.02344 7.15642,4.0014 5.56367,4.0014 3.43081,4.0014 2.69781,4.02344 2.42225,4.07856 2.22385,4.11713 1.91522,4.22185 1.73334,4.31003 1.55147,4.39821 1.25938,4.58559 1.08853,4.72888 0.91216701,4.87218 0.67518301,5.13672 0.55944601,5.31308 c -0.115736,0.17085 -0.26454,0.4409 -0.325164,0.5897 -0.066135,0.15432 -0.1488042,0.43539 -0.187383,0.6338 -0.03857883,0.20943 -0.05511261,0.5401 -0.0330676,0.79913 0.0165338,0.2425 0.0826689,0.58971 0.1488036,0.77158 0.066136,0.18187 0.231473,0.50152 0.374766,0.71095 0.143293,0.20943 0.369254,0.47948 0.50703899,0.59522 0.13778,0.11573 0.38579,0.28107 0.55112,0.36925 0.16534,0.09369 0.42988,0.20943 0.57869,0.25899 0.23147,0.0827 0.59521,0.0992 2.31472,0.1268 1.33373,0.022 2.07775,0.0551 2.1494,0.0937 0.06062,0.0331 0.16533,0.1323 0.23698,0.2204 0.08267,0.1048 0.12676,0.2315 0.12125,0.3693 0,0.1102 -0.03858,0.2811 -0.08267,0.3692 -0.04409,0.0882 -0.1488,0.1985 -0.23147,0.2425 -0.12125,0.0552 -0.73851,0.0772 -2.93751,0.0992 l -2.78318199,0.0276 c -0.545615,0.2535 -0.677885,0.3527 -0.782599,0.5236 -0.1377813,0.1984 -0.154315,0.281 -0.154315,0.6558 0,0.3858 0.0165337,0.4464 0.165338,0.6614 0.099202,0.1433 0.275563,0.2921 0.440901,0.3747 l 0.270051,0.1433 c 5.89153599,0 5.96869599,0 6.34346599,-0.1212 0.21493,-0.0662 0.53459,-0.215 0.71646,-0.3362 0.18187,-0.1157 0.46294,-0.3527 0.62277,-0.5236 0.15432,-0.1763 0.37477,-0.496 0.47948,-0.7109 0.10471,-0.2205 0.21494,-0.5236 0.2425,-0.6779 0.02755,-0.1488 0.06613,-0.4409 0.08266,-0.6448 0.02205,-0.248 0.05512,-0.3748 0.10472,-0.3748 0.03307,0 0.16534,0.0661 0.28658,0.1543 0.12125,0.0882 0.29212,0.2425 0.38032,0.3472 0.0881,0.1047 0.2204,0.2976 0.2976,0.4354 0.0826,0.1378 0.1874,0.4078 0.2425,0.6063 0.0551,0.1984 0.0992,0.4905 0.0992,0.6503 0,0.1543 -0.0276,0.4188 -0.0607,0.5787 -0.033,0.1543 -0.1377,0.4354 -0.2369,0.6117 -0.0937,0.1819 -0.2591,0.4299 -0.3693,0.5511 -0.1047,0.1268 -0.31965,0.3087 -0.46845,0.4079 -0.14881,0.0992 -0.40783,0.237 -0.57317,0.3031 -0.30253,0.121 -0.33606,0.1212 -4.24837,0.1486 l -0.02286,2e-4 -3.96810699,0.0276 c -0.407833,0.2369 -0.589705,0.4078 -0.672374,0.5345 -0.1047137,0.1544 -0.1598263,0.3252 -0.17636009,0.5071 -0.01102252,0.1543 0.01102249,0.3803 0.05511259,0.5015 0.0385788,0.1213 0.1488045,0.3031 0.2369845,0.4078 0.093691,0.1048 0.281074,0.2425 0.418855,0.3032 0.242496,0.1102 0.34169899,0.1157 3.47209899,0.1322 1.82973,0.011 3.58231,-0.0055 4.05077,-0.0386 0.46295,-0.033 1.01959,-0.1102 1.26759,-0.1708 0.2425,-0.0606 0.62828,-0.1984 0.85428,-0.3086 0.2259,-0.1103 0.5401,-0.2811 0.6889,-0.3803 0.1543,-0.0992 0.4243,-0.3307 0.6062,-0.507 0.1819,-0.1764 0.4354,-0.4575 0.5566,-0.6228 0.1268,-0.1654 0.3142,-0.474 0.4189,-0.6889 0.1047,-0.215 0.248,-0.5456 0.3086,-0.744 0.0662,-0.1984 0.1433,-0.5181 0.1819,-0.7165 0.0441,-0.226 0.0551,-0.6118 0.0331,-1.0471 C 13.1361,12.1636 13.081,11.7061 13.0314,11.5243 12.9818,11.3424 12.8661,11.0062 12.7669,10.7802 12.6677,10.5543 12.4913,10.2181 12.3701,10.0362 12.2488,9.85436 11.9898,9.54021 11.7914,9.33079 L 11.4332,8.95602 C 11.7308,8.71904 11.9788,8.44347 12.1717,8.18445 12.3646,7.93093 12.6071,7.55616 12.7063,7.35224 12.811,7.14282 12.9598,6.76254 13.0424,6.498 13.1637,6.07914 13.1857,5.90829 13.1913,5.29654 13.1913,4.68479 13.1692,4.49741 13.0424,4.02895 12.9598,3.72584 12.7669,3.22982 12.6181,2.9267 12.4693,2.62358 12.2047,2.20473 12.0394,1.98979 11.8686,1.78036 11.5765,1.47173 11.3891,1.31741 11.2017,1.15759 10.86,0.926115 10.634,0.810379 10.4081,0.689131 9.99472,0.529304 9.72467,0.446635 9.34991,0.33641 9.01923,0.29232 8.37441,0.253741 7.90596,0.226185 6.25809,0.20414 4.70942,0.209651 3.16076,0.215162 1.6617,0.231696 1.37511,0.24823 Z M 16.5421,0.3805 c 0.0992,-0.049601 0.2756,-0.104714 0.3913,-0.126759 0.1157,-0.016533 0.3141,-0.011022 0.4409,0.011023 0.0656,0.011406 0.1297,0.021337 0.1794,0.029029 0.0463,0.007174 0.08,0.012401 0.0907,0.015061 0.0275,0 0.1322,0.082669 0.2424,0.181871 0.1103,0.093692 0.2536,0.275564 0.4354,0.617265 v 7.82599 c 0,6.71272 -0.011,7.85902 -0.0826,8.04642 -0.0441,0.1213 -0.1433,0.2921 -0.2205,0.3803 -0.0771,0.0882 -0.237,0.2094 -0.3582,0.259 -0.1213,0.0551 -0.3527,0.1047 -0.5126,0.1047 -0.1543,0 -0.3802,-0.0385 -0.496,-0.0881 -0.1102,-0.0441 -0.2645,-0.1378 -0.3362,-0.204 C 16.2445,17.3662 16.1288,17.1898 15.9248,16.76 V 9.11585 c 0,-4.82787 0.0221,-7.74883 0.0552,-7.90866 0.0275,-0.1488 0.1267,-0.369255 0.2204,-0.496014 0.0882,-0.13227 0.248,-0.281074 0.3417,-0.330676 z M 49.8742,0.259253 C 49.7695,0.281298 49.5876,0.369478 49.4719,0.446635 49.3451,0.534816 49.2184,0.689131 49.1302,0.876514 L 48.9924,1.1631 c 0,13.7781 0.0165,15.5914 0.0716,15.7567 0.0331,0.1212 0.1599,0.3252 0.2701,0.4574 0.1653,0.1874 0.2756,0.2535 0.5236,0.3252 0.1873,0.0496 0.4023,0.0716 0.5125,0.0551 0.1047,-0.022 0.3086,-0.1102 0.4519,-0.1984 0.204,-0.1268 0.2976,-0.237 0.4134,-0.4795 l 0.1543,-0.3196 0.0551,-3.3233 c 0.215,-0.2315 0.5456,-0.5401 0.8763,-0.8322 l 0.5952,-0.5291 c 0.1819,0.259 1.1904,1.3503 2.3643,2.5903 l 0.7877,0.8398 c 0.8253,0.88 1.4764,1.5744 1.5822,1.6843 0.1378,0.1544 0.3748,0.3307 0.5456,0.4079 0.237,0.1157 0.3582,0.1378 0.5511,0.1157 0.1378,-0.0165 0.3362,-0.0771 0.4409,-0.1267 0.1047,-0.0552 0.2535,-0.1488 0.3197,-0.215 0.0716,-0.0606 0.1708,-0.1874 0.2149,-0.2811 0.0496,-0.0881 0.1102,-0.2369 0.1378,-0.3306 0.0331,-0.1268 0.011,-0.2591 -0.1047,-0.5732 -0.1323,-0.3582 -0.2315,-0.496 -0.733,-1.0527 -0.3197,-0.3527 -1.3944,-1.5266 -2.3974,-2.6123 -1.0031,-1.0857 -1.8242,-2.0061 -1.8353,-2.0392 -0.011,-0.033 0.8212,-0.8046 1.8463,-1.71396 C 57.6561,7.85928 58.6977,6.91685 58.9457,6.67436 59.3315,6.29959 59.4032,6.19488 59.4583,5.9579 59.5079,5.75398 59.5134,5.62171 59.4693,5.45086 59.4362,5.31859 59.326,5.1257 59.2268,5.01547 59.1331,4.90524 58.9512,4.76195 58.83,4.70133 58.6922,4.62968 58.5048,4.58559 58.334,4.58559 c -0.1929,0 -0.3472,0.04409 -0.5236,0.14329 -0.1378,0.07716 -1.0802,0.90385 -2.0943,1.84077 -1.014,0.9314 -2.3919,2.19348 -3.0587,2.79972 l -1.2125,1.10223 -7e-4,-0.1264 v -5e-4 C 51.3898,1.24495 51.3893,1.15647 51.2741,0.915093 51.2134,0.777311 51.0757,0.589928 50.9709,0.496237 50.8552,0.391523 50.6733,0.303343 50.4915,0.264764 50.3371,0.226185 50.1718,0.198629 50.1332,0.20414 c -0.033,0.005511 -0.1543,0.027556 -0.259,0.055113 z m 68.3448,0.314141 c 0.188,-0.187382 0.342,-0.281074 0.507,-0.314141 h -0.005 c 0.132,-0.033068 0.336,-0.038579 0.457,-0.027557 0.122,0.016534 0.303,0.071647 0.408,0.121248 0.105,0.049601 0.27,0.187383 0.375,0.303119 0.099,0.110226 0.204,0.297608 0.237,0.413347 0.033,0.13227 0.049,2.94301 0.027,15.69059 l -0.148,0.2755 c -0.078,0.1543 -0.215,0.3417 -0.303,0.4244 -0.083,0.0827 -0.254,0.1874 -0.375,0.237 -0.16,0.0661 -0.292,0.0827 -0.469,0.0551 -0.137,-0.0221 -0.336,-0.0827 -0.441,-0.1378 -0.104,-0.0496 -0.275,-0.1874 -0.374,-0.2976 -0.094,-0.1102 -0.199,-0.2921 -0.232,-0.4023 -0.033,-0.1378 -0.055,-2.9871 -0.055,-7.92521 0,-5.41757 0.017,-7.7819 0.061,-7.93622 0.038,-0.143289 0.154,-0.314138 0.33,-0.479476 z M 89.4671,0.3805 C 89.3458,0.452147 89.1585,0.628507 89.0593,0.777311 L 88.8719,1.04185 V 16.9253 c 0.1929,0.3637 0.3472,0.5346 0.4795,0.6228 0.1873,0.1212 0.3031,0.1543 0.6448,0.1653 0.3968,0.0221 0.4299,0.011 0.6944,-0.1653 0.1819,-0.1213 0.3141,-0.2701 0.4133,-0.4575 l 0.1378,-0.27 0.0276,-7.44572 C 91.4787,8.69148 91.633,8.34427 91.7543,8.1624 91.87,7.98053 92.1125,7.69394 92.2944,7.5286 92.4762,7.35776 92.8014,7.13179 93.0329,7.01606 93.2588,6.90583 93.595,6.77356 93.7769,6.72947 93.9588,6.68538 94.328,6.6468 94.6036,6.6468 c 0.2756,0 0.6558,0.03307 0.8542,0.07716 0.1984,0.03858 0.463,0.12676 0.5897,0.19289 0.1323,0.06063 0.3417,0.20943 0.4685,0.33068 0.1323,0.11574 0.3031,0.33068 0.3858,0.47948 0.0771,0.1488 0.1984,0.46846 0.259,0.71095 0.0606,0.2425 0.1378,0.65033 0.1653,0.90936 0.0386,0.28108 0.0607,1.81868 0.0607,3.87438 0,2.5462 0.0165,3.4666 0.0661,3.6595 0.0441,0.1488 0.1598,0.3582 0.2756,0.496 0.1267,0.1433 0.2921,0.2591 0.4133,0.2976 0.1158,0.0331 0.3638,0.0551 0.5511,0.0441 0.2646,-0.0165 0.3858,-0.0551 0.5732,-0.1874 0.1433,-0.0992 0.2921,-0.2755 0.3748,-0.4409 l 0.1433,-0.27 C 99.8117,11.5739 99.7952,9.87089 99.7621,9.40243 99.7291,8.96153 99.6519,8.33325 99.5913,7.99706 99.5307,7.66639 99.4314,7.21997 99.3653,7.00504 99.3047,6.79561 99.1724,6.47044 99.0787,6.28857 98.974,6.09017 98.7315,5.78705 98.478,5.53353 98.1253,5.18081 97.9544,5.05956 97.5356,4.86115 97.26,4.72888 96.8522,4.57457 96.6428,4.51946 96.3562,4.44781 96.0475,4.42025 95.4578,4.42025 c -0.6007,0 -0.8873,0.02756 -1.1573,0.09921 C 94.1021,4.57457 93.6942,4.73991 93.3911,4.88871 93.088,5.032 92.6802,5.2745 92.4818,5.4233 92.2833,5.57762 91.9306,5.89727 91.6936,6.14528 L 91.2693,6.59169 C 91.2417,1.29537 91.2362,1.09696 91.137,0.915093 91.0819,0.810379 90.9827,0.661575 90.9166,0.595439 90.8559,0.523793 90.7071,0.413568 90.5914,0.358455 90.4554,0.288646 90.2717,0.253741 90.0403,0.253741 c -0.2591,0 -0.4024,0.033068 -0.5732,0.126759 z M 40.979,4.36514 c 0.2425,-0.04409 0.5291,-0.09369 0.6338,-0.11022 0.1047,-0.01103 0.5291,-0.01654 0.9369,-0.00552 0.4134,0.01103 0.9425,0.06063 1.185,0.11023 0.2425,0.0496 0.6503,0.17085 0.9093,0.25903 0.259,0.09369 0.6559,0.25903 0.8818,0.38028 0.226,0.11573 0.5181,0.31414 0.6448,0.43539 0.1323,0.12124 0.2866,0.31414 0.3417,0.42987 0.0607,0.11023 0.1213,0.33068 0.1433,0.47948 0.0221,0.15432 0.011,0.37477 -0.022,0.51255 -0.0331,0.12676 -0.1268,0.30863 -0.215,0.40232 C 46.336,7.35776 46.1761,7.479 46.0604,7.53412 45.9502,7.59474 45.7408,7.63883 45.592,7.63883 45.3825,7.64434 45.2833,7.60576 45.0574,7.45145 44.903,7.34122 44.644,7.17037 44.4787,7.06566 44.3133,6.96095 43.9772,6.80663 43.7347,6.72396 43.3599,6.5972 43.1725,6.56965 42.5222,6.5476 41.8608,6.52556 41.6845,6.53658 41.2821,6.64129 c -0.259,0.06614 -0.6172,0.18738 -0.7991,0.27005 -0.1819,0.08818 -0.4574,0.23699 -0.6062,0.3417 -0.1543,0.10472 -0.4079,0.31414 -0.5732,0.46846 -0.1598,0.1488 -0.3748,0.38579 -0.474,0.52357 -0.0992,0.13778 -0.27,0.42437 -0.3747,0.63379 -0.1103,0.21494 -0.248,0.57317 -0.3142,0.79914 -0.0716,0.25351 -0.1267,0.6558 -0.1488,1.0471 -0.0165,0.3748 -0.0055,0.8377 0.0331,1.1298 0.0386,0.2756 0.1433,0.722 0.2315,0.9921 0.0937,0.2755 0.27,0.6723 0.3913,0.8818 0.1267,0.2149 0.4298,0.5842 0.6723,0.8267 0.3472,0.3472 0.5512,0.496 0.9149,0.6723 0.259,0.1268 0.6669,0.2866 0.9094,0.3583 0.3637,0.1047 0.5676,0.1212 1.1849,0.1212 0.5621,-0.0055 0.8432,-0.0331 1.1573,-0.1157 0.226,-0.0606 0.5732,-0.1929 0.7716,-0.2921 0.1984,-0.0992 0.4795,-0.2646 0.6338,-0.3693 0.1488,-0.1047 0.3968,-0.2259 0.5511,-0.27 0.1489,-0.0441 0.2977,-0.0772 0.3307,-0.0772 0.0276,0 0.1488,0.0276 0.2591,0.0551 0.1157,0.0331 0.2976,0.1378 0.4078,0.237 0.1212,0.1102 0.2259,0.2811 0.2811,0.4519 0.0551,0.1764 0.0716,0.3638 0.0551,0.5236 -0.0221,0.1378 -0.0937,0.3362 -0.1709,0.4409 -0.0716,0.1047 -0.2755,0.3031 -0.4409,0.4409 -0.1708,0.1378 -0.4905,0.3417 -0.7109,0.4519 -0.215,0.1158 -0.6228,0.2811 -0.8929,0.3693 -0.2755,0.0882 -0.6834,0.2039 -0.9093,0.2535 -0.237,0.0496 -0.7936,0.1047 -1.2952,0.1213 -0.5566,0.0165 -1.0636,0.0055 -1.3778,-0.0386 -0.2755,-0.0331 -0.7054,-0.1268 -0.9644,-0.2039 -0.2591,-0.0717 -0.6449,-0.215 -0.8543,-0.3142 -0.2149,-0.0992 -0.5676,-0.3031 -0.7936,-0.4519 -0.226,-0.1488 -0.5952,-0.4574 -0.8212,-0.6834 -0.226,-0.226 -0.5291,-0.5732 -0.6779,-0.7716 -0.1433,-0.1984 -0.3637,-0.5456 -0.485,-0.7716 -0.1212,-0.2259 -0.2921,-0.6227 -0.3858,-0.8818 -0.0881,-0.259 -0.2149,-0.7274 -0.281,-1.0471 C 35.6496,12.4446 35.5835,11.866 35.567,11.4692 35.5504,11.0613 35.5615,10.5157 35.6,10.2016 35.6331,9.89845 35.7268,9.41346 35.804,9.12687 35.8811,8.84029 36.0189,8.41592 36.1181,8.18996 36.2173,7.96399 36.4212,7.56718 36.57,7.30815 c 0.1598,-0.27556 0.4575,-0.65584 0.7165,-0.9314 0.2425,-0.25352 0.6117,-0.5897 0.8267,-0.74953 0.2094,-0.15983 0.6227,-0.41334 0.9093,-0.56766 0.2866,-0.15431 0.744,-0.35272 1.0196,-0.4409 0.2701,-0.08818 0.6944,-0.20392 0.9369,-0.25352 z m 66.631,0 c -0.242,0.04409 -0.628,0.14329 -0.854,0.22045 -0.226,0.07716 -0.59,0.22045 -0.799,0.32517 -0.21,0.0992 -0.623,0.33618 -0.91,0.52908 -0.286,0.19289 -0.722,0.55112 -0.97,0.79362 -0.242,0.24249 -0.578,0.63931 -0.738,0.8818 -0.165,0.2425 -0.402,0.66686 -0.529,0.93691 -0.132,0.27557 -0.303,0.72198 -0.38,0.99203 -0.078,0.27556 -0.182,0.74402 -0.232,1.0471 -0.061,0.4024 -0.072,0.7661 -0.05,1.3503 0.023,0.5732 0.072,0.97 0.171,1.4054 0.078,0.3362 0.221,0.8046 0.32,1.0471 0.099,0.2425 0.287,0.6338 0.424,0.8763 0.138,0.237 0.414,0.6338 0.612,0.8818 0.199,0.2425 0.535,0.5952 0.755,0.7771 0.215,0.1819 0.584,0.4464 0.821,0.5897 0.237,0.1488 0.629,0.3527 0.871,0.4574 0.243,0.1047 0.689,0.2535 0.992,0.3362 0.408,0.1047 0.744,0.1488 1.295,0.1709 0.557,0.022 0.899,0.0055 1.351,-0.0662 0.336,-0.0496 0.804,-0.1543 1.047,-0.2314 0.242,-0.0772 0.617,-0.2205 0.826,-0.3197 0.21,-0.1047 0.579,-0.3086 0.811,-0.4629 0.237,-0.1544 0.617,-0.463 0.854,-0.6779 0.231,-0.2205 0.556,-0.5897 0.727,-0.8157 0.171,-0.226 0.414,-0.6117 0.54,-0.8542 0.127,-0.2425 0.315,-0.7 0.425,-1.0196 0.104,-0.3197 0.226,-0.8377 0.275,-1.1574 0.05,-0.3196 0.088,-0.8267 0.088,-1.1298 0,-0.3031 -0.027,-0.7716 -0.06,-1.0471 -0.033,-0.27009 -0.127,-0.7661 -0.215,-1.10229 -0.083,-0.33067 -0.248,-0.81566 -0.369,-1.07469 -0.116,-0.25903 -0.337,-0.65584 -0.485,-0.8818 -0.155,-0.22597 -0.474,-0.61175 -0.717,-0.85425 -0.242,-0.24249 -0.65,-0.58419 -0.909,-0.75504 -0.259,-0.17085 -0.645,-0.39681 -0.854,-0.50153 -0.21,-0.10471 -0.574,-0.25903 -0.8,-0.33618 -0.225,-0.08267 -0.611,-0.19841 -0.854,-0.25903 -0.297,-0.07716 -0.7,-0.11574 -1.24,-0.13227 -0.573,-0.01654 -0.926,0 -1.24,0.06062 z M 25.9608,4.46986 c 0.1984,-0.04409 0.4299,-0.08818 0.5236,-0.10472 0.0882,-0.01102 0.5842,-0.01653 1.1023,-0.00551 0.5566,0.01653 1.0857,0.05511 1.2951,0.10471 0.1984,0.04409 0.5456,0.14881 0.7716,0.23148 0.2259,0.07715 0.5621,0.22045 0.744,0.30863 0.1819,0.09369 0.5291,0.29761 0.7716,0.45743 0.2425,0.15983 0.6228,0.47397 0.8487,0.69993 0.226,0.22045 0.5511,0.58971 0.7165,0.81567 0.1653,0.22596 0.4133,0.62277 0.5401,0.8818 0.1323,0.25903 0.3141,0.69442 0.4023,0.96447 0.0882,0.27556 0.2039,0.70544 0.259,0.96447 0.0662,0.33618 0.0992,0.72748 0.0992,1.37778 0,0.5512 -0.0275,1.0637 -0.0771,1.2952 -0.0386,0.2149 -0.1158,0.5456 -0.1709,0.744 -0.0551,0.1984 -0.1488,0.485 -0.2094,0.6338 -0.0606,0.1543 -0.1819,0.4244 -0.2756,0.6062 -0.0881,0.1819 -0.3031,0.5291 -0.4794,0.7716 -0.1709,0.2425 -0.4905,0.6228 -0.7055,0.8432 -0.2204,0.2205 -0.5842,0.5346 -0.8101,0.6945 -0.226,0.1653 -0.6008,0.3968 -0.8267,0.5235 -0.226,0.1213 -0.6393,0.2921 -0.9094,0.3858 -0.2755,0.0882 -0.722,0.2039 -0.992,0.2535 C 28.3031,17.9614 27.8071,18 27.4764,18 c -0.3361,0 -0.8377,-0.0386 -1.1187,-0.0827 -0.2756,-0.0441 -0.711,-0.1488 -0.9645,-0.2259 -0.248,-0.0772 -0.6614,-0.248 -0.9204,-0.3748 -0.259,-0.1268 -0.6173,-0.3307 -0.7991,-0.4574 -0.1819,-0.1213 -0.5071,-0.3858 -0.7165,-0.5787 -0.2149,-0.1984 -0.5291,-0.5401 -0.6999,-0.7661 -0.1709,-0.2259 -0.4299,-0.6062 -0.5677,-0.8487 -0.1378,-0.2425 -0.3251,-0.6503 -0.4188,-0.9094 -0.0937,-0.259 -0.2205,-0.6889 -0.2756,-0.9644 -0.0661,-0.2976 -0.1268,-0.8102 -0.1433,-1.2952 -0.022,-0.6007 -0.0055,-0.9589 0.0661,-1.4329 0.0496,-0.34722 0.1709,-0.88182 0.2756,-1.18494 0.0992,-0.30312 0.2811,-0.74953 0.4023,-0.99202 0.1213,-0.2425 0.3527,-0.62829 0.5126,-0.85425 0.1543,-0.22596 0.496,-0.61726 0.744,-0.86527 0.2535,-0.25351 0.6448,-0.57868 0.8597,-0.72748 0.2205,-0.1433 0.5512,-0.3417 0.733,-0.42988 0.1819,-0.09369 0.5181,-0.23699 0.7441,-0.31414 0.2259,-0.08267 0.5731,-0.18187 0.7715,-0.22596 z M 80.9632,4.41474 c -0.259,0.03858 -0.6999,0.14881 -0.981,0.2425 -0.2756,0.09369 -0.6613,0.248 -0.8542,0.3417 -0.1874,0.09369 -0.5236,0.30312 -0.7496,0.45743 -0.2204,0.15432 -0.5952,0.47948 -0.8266,0.72198 -0.2315,0.24249 -0.5512,0.62828 -0.7055,0.85424 -0.1488,0.22596 -0.3637,0.58971 -0.4684,0.79913 -0.1103,0.21494 -0.2646,0.57318 -0.3417,0.79914 -0.0827,0.22596 -0.1985,0.66135 -0.2591,0.96447 -0.0606,0.30312 -0.1267,0.82667 -0.1433,1.15737 -0.0165,0.3417 0,0.8928 0.0386,1.2676 0.0331,0.3637 0.1213,0.8873 0.1929,1.1573 0.0661,0.2756 0.2149,0.722 0.3252,0.9921 0.1102,0.2755 0.3306,0.6999 0.4905,0.9534 0.1543,0.2535 0.4629,0.6504 0.6779,0.8818 0.2149,0.2315 0.5621,0.5511 0.7715,0.711 0.2095,0.1543 0.6008,0.3968 0.8763,0.5401 0.2701,0.1378 0.7275,0.3251 1.0031,0.4133 0.281,0.0937 0.766,0.2039 1.0747,0.2535 0.4354,0.0717 0.7936,0.0827 1.5045,0.0607 0.7,-0.0221 1.0527,-0.0607 1.4054,-0.1488 0.259,-0.0607 0.6559,-0.1929 0.8818,-0.2811 0.226,-0.0937 0.5897,-0.2701 0.7991,-0.3968 0.2095,-0.1213 0.5181,-0.3527 0.6834,-0.5015 0.1654,-0.1544 0.3417,-0.3803 0.3969,-0.5016 0.0551,-0.1212 0.1047,-0.3196 0.1047,-0.4409 0,-0.1212 -0.0496,-0.3196 -0.1047,-0.4409 -0.0552,-0.1212 -0.1599,-0.2755 -0.2315,-0.3417 -0.0717,-0.0661 -0.226,-0.1598 -0.3417,-0.2039 -0.1102,-0.0496 -0.2976,-0.0882 -0.4134,-0.0882 -0.1102,0 -0.3031,0.0441 -0.4243,0.0992 -0.1213,0.0551 -0.3472,0.1819 -0.496,0.2866 -0.1544,0.1047 -0.452,0.2646 -0.6614,0.3638 -0.2094,0.0937 -0.5732,0.2204 -0.7991,0.2755 -0.2866,0.0662 -0.6118,0.0992 -1.0472,0.0937 -0.4629,0 -0.755,-0.0331 -1.0747,-0.1212 -0.2425,-0.0662 -0.5897,-0.1874 -0.7715,-0.2701 -0.1819,-0.0882 -0.4299,-0.2204 -0.5512,-0.3031 -0.1212,-0.0827 -0.3802,-0.3031 -0.5731,-0.496 -0.1929,-0.1874 -0.452,-0.4905 -0.5732,-0.6724 -0.1213,-0.1819 -0.2976,-0.4905 -0.3858,-0.6889 -0.0882,-0.1984 -0.2094,-0.5787 -0.2645,-0.8542 -0.0551,-0.2701 -0.1047,-0.7165 -0.1047,-0.9921 0,-0.27 0.0385,-0.7385 0.0826,-1.0306 0.0441,-0.2976 0.1654,-0.75502 0.2646,-1.01956 0.0992,-0.27005 0.2921,-0.65584 0.4354,-0.87078 0.1377,-0.20943 0.4243,-0.54561 0.6282,-0.74402 0.2095,-0.1984 0.5401,-0.45743 0.7385,-0.57317 0.1985,-0.11573 0.5787,-0.28658 0.8543,-0.38028 0.4574,-0.15982 0.5511,-0.17084 1.24,-0.17084 0.5456,0 0.8377,0.02755 1.1023,0.0992 0.1984,0.05511 0.5566,0.19289 0.7991,0.30312 0.2425,0.11573 0.6007,0.31414 0.7991,0.43539 0.1984,0.12676 0.4575,0.248 0.5787,0.26454 0.1268,0.02204 0.3142,0.00551 0.4409,-0.03858 C 86.1273,7.59474 86.2981,7.49554 86.3863,7.41838 86.4745,7.34122 86.5957,7.1814 86.6453,7.06015 86.706,6.93339 86.75,6.70743 86.75,6.52556 86.75,6.32164 86.7115,6.13426 86.6453,6.00199 86.5902,5.88625 86.4194,5.69336 86.2761,5.5666 86.1273,5.44535 85.8793,5.26348 85.7305,5.15876 85.5761,5.05405 85.3061,4.90524 85.1242,4.82258 84.9424,4.74542 84.6558,4.63519 84.4904,4.5911 84.3251,4.5415 83.9503,4.46434 83.6637,4.41474 83.3386,4.36514 82.815,4.33207 82.2859,4.33758 81.8175,4.3431 81.2223,4.37616 80.9632,4.41474 Z m 46.5698,0.08267 c 0.226,-0.05511 0.485,-0.11573 0.579,-0.12676 0.094,-0.01102 0.452,-0.02755 0.799,-0.03307 0.391,-0.00551 0.816,0.02756 1.102,0.08267 0.259,0.04961 0.678,0.15983 0.937,0.25352 0.259,0.08818 0.629,0.25352 0.827,0.35823 0.198,0.11023 0.518,0.31415 0.716,0.45193 0.199,0.13778 0.535,0.42988 0.745,0.64481 0.209,0.21494 0.523,0.5842 0.688,0.82669 0.166,0.23699 0.403,0.66136 0.53,0.93141 0.132,0.27556 0.297,0.70544 0.369,0.96447 0.077,0.25903 0.165,0.66135 0.198,0.89833 0.033,0.23148 0.061,0.57316 0.061,0.75506 0,0.1819 -0.039,0.4244 -0.088,0.5401 -0.044,0.1102 -0.16,0.2866 -0.259,0.3858 -0.105,0.1102 -0.287,0.2149 -0.452,0.2645 -0.232,0.0662 -0.976,0.0772 -9.149,0.0772 l 0.039,0.3472 c 0.016,0.1874 0.088,0.5015 0.154,0.6999 0.066,0.1984 0.22,0.5567 0.347,0.7991 0.165,0.3087 0.358,0.5622 0.672,0.8818 0.243,0.2425 0.579,0.5236 0.744,0.6173 0.166,0.0992 0.463,0.248 0.662,0.3252 0.198,0.0826 0.534,0.1818 0.744,0.2259 0.215,0.0441 0.672,0.0772 1.019,0.0772 0.48,0 0.761,-0.0331 1.158,-0.1323 0.286,-0.0716 0.722,-0.237 0.964,-0.3582 0.243,-0.1268 0.579,-0.3417 0.744,-0.485 0.166,-0.1378 0.403,-0.2976 0.524,-0.3582 0.127,-0.0607 0.342,-0.1047 0.507,-0.1047 0.16,0 0.347,0.0275 0.413,0.0606 0.072,0.033 0.199,0.1267 0.281,0.2094 0.088,0.0772 0.193,0.2094 0.237,0.2976 0.044,0.0827 0.077,0.2646 0.077,0.4134 0,0.1433 -0.049,0.3582 -0.104,0.4794 -0.055,0.1213 -0.27,0.3803 -0.48,0.5787 -0.209,0.1984 -0.518,0.4464 -0.683,0.5622 -0.165,0.1102 -0.54,0.3141 -0.827,0.4519 -0.286,0.1378 -0.771,0.3141 -1.075,0.3913 -0.303,0.0772 -0.887,0.1708 -1.295,0.2039 -0.567,0.0496 -0.892,0.0496 -1.377,0 -0.348,-0.0331 -0.844,-0.1212 -1.103,-0.1929 -0.259,-0.0716 -0.656,-0.2094 -0.882,-0.3031 -0.226,-0.0937 -0.65,-0.3252 -0.936,-0.5181 -0.304,-0.1929 -0.733,-0.5511 -1.02,-0.8377 -0.276,-0.2755 -0.639,-0.7109 -0.81,-0.97 -0.177,-0.259 -0.403,-0.6668 -0.507,-0.9093 -0.105,-0.2425 -0.243,-0.6393 -0.303,-0.8818 -0.061,-0.2425 -0.138,-0.6118 -0.171,-0.8267 -0.028,-0.2094 -0.055,-0.755 -0.055,-1.2125 0,-0.4519 0.038,-1.0471 0.077,-1.32268 0.044,-0.27006 0.127,-0.69442 0.193,-0.93692 0.06,-0.24249 0.182,-0.61175 0.264,-0.82669 0.088,-0.20943 0.248,-0.54561 0.359,-0.74402 0.11,-0.1984 0.308,-0.50703 0.446,-0.68891 0.138,-0.18187 0.446,-0.52357 0.694,-0.75504 0.243,-0.23698 0.662,-0.57317 0.926,-0.74402 0.27,-0.17636 0.684,-0.39681 0.926,-0.50152 0.243,-0.09921 0.628,-0.23148 0.854,-0.28659 z M 140.65,4.42025 c -0.259,0.04409 -0.656,0.1433 -0.882,0.22045 -0.226,0.07716 -0.573,0.22597 -0.771,0.33068 -0.199,0.0992 -0.518,0.31414 -0.717,0.47948 -0.198,0.15983 -0.446,0.41334 -0.556,0.56766 -0.111,0.1488 -0.281,0.41886 -0.37,0.60073 -0.093,0.18187 -0.209,0.4905 -0.253,0.6889 -0.05,0.19841 -0.088,0.5842 -0.088,0.85425 0,0.27556 0.038,0.65584 0.088,0.85425 0.044,0.1984 0.16,0.51805 0.259,0.71646 0.099,0.19289 0.292,0.47949 0.43,0.63379 0.165,0.1819 0.49,0.4189 0.964,0.6999 0.392,0.2315 0.849,0.474 1.014,0.5401 0.166,0.0662 0.739,0.2536 1.268,0.4244 0.529,0.1653 1.334,0.4464 1.791,0.6228 0.452,0.1818 0.932,0.4023 1.058,0.496 0.133,0.0882 0.292,0.27 0.358,0.4023 0.072,0.1433 0.127,0.3748 0.144,0.6173 0.016,0.2866 0,0.4684 -0.077,0.6889 -0.061,0.1819 -0.177,0.3803 -0.292,0.496 -0.111,0.1047 -0.326,0.2535 -0.474,0.3252 -0.155,0.0716 -0.502,0.1763 -0.772,0.2369 -0.391,0.0882 -0.628,0.1048 -1.13,0.0827 -0.474,-0.022 -0.744,-0.0606 -1.074,-0.1708 -0.243,-0.0772 -0.634,-0.2536 -0.871,-0.3913 -0.243,-0.1433 -0.64,-0.4575 -0.937,-0.733 -0.276,-0.2701 -0.612,-0.5401 -0.744,-0.6063 -0.132,-0.0716 -0.336,-0.1212 -0.48,-0.1212 -0.137,0 -0.341,0.0496 -0.457,0.1047 -0.11,0.0606 -0.27,0.1764 -0.353,0.2645 -0.083,0.0827 -0.187,0.2536 -0.237,0.3748 -0.06,0.1488 -0.083,0.2866 -0.055,0.4133 0.022,0.1048 0.088,0.2921 0.149,0.4134 0.066,0.1212 0.292,0.4023 0.507,0.6228 0.215,0.2204 0.568,0.5235 0.777,0.6668 0.209,0.1488 0.546,0.3472 0.744,0.4464 0.198,0.0992 0.606,0.2591 0.909,0.3638 0.303,0.0992 0.799,0.2259 1.103,0.2755 0.407,0.0662 0.76,0.0827 1.35,0.0607 0.601,-0.0221 0.926,-0.0607 1.323,-0.1654 0.286,-0.0716 0.722,-0.2259 0.964,-0.3362 0.243,-0.1157 0.59,-0.3141 0.772,-0.4409 0.181,-0.1322 0.49,-0.4078 0.683,-0.6172 0.22,-0.237 0.424,-0.5236 0.54,-0.7661 0.099,-0.2094 0.221,-0.5566 0.265,-0.7716 0.044,-0.2094 0.082,-0.5731 0.082,-0.7991 0,-0.226 -0.038,-0.5842 -0.082,-0.7991 -0.044,-0.2095 -0.171,-0.5732 -0.281,-0.7992 -0.149,-0.3141 -0.298,-0.5125 -0.618,-0.8266 -0.314,-0.3032 -0.551,-0.4795 -0.892,-0.6504 -0.26,-0.1267 -1.163,-0.4684 -2.012,-0.7495 -0.849,-0.28108 -1.813,-0.62278 -2.149,-0.75505 -0.342,-0.13227 -0.689,-0.30863 -0.794,-0.40784 -0.099,-0.08818 -0.237,-0.26454 -0.303,-0.38578 -0.094,-0.17636 -0.116,-0.31966 -0.116,-0.71647 0,-0.38027 0.028,-0.5401 0.105,-0.68891 0.055,-0.10471 0.176,-0.27556 0.275,-0.37476 0.094,-0.10471 0.243,-0.22596 0.336,-0.27005 0.094,-0.0496 0.276,-0.12125 0.414,-0.16534 0.138,-0.04409 0.556,-0.09369 0.937,-0.11023 0.507,-0.02204 0.799,-0.00551 1.102,0.06063 0.226,0.04409 0.612,0.18187 0.854,0.30312 0.259,0.13227 0.606,0.36925 0.838,0.58419 0.22,0.19841 0.501,0.40783 0.623,0.46846 0.121,0.06062 0.314,0.11022 0.424,0.11022 0.116,0 0.32,-0.05511 0.458,-0.12676 0.159,-0.07715 0.297,-0.20391 0.396,-0.36925 0.111,-0.17085 0.155,-0.31965 0.155,-0.47948 0,-0.14329 -0.055,-0.35272 -0.144,-0.52357 -0.082,-0.17085 -0.314,-0.45743 -0.545,-0.67788 -0.215,-0.20943 -0.579,-0.49051 -0.805,-0.61727 -0.226,-0.13227 -0.645,-0.31965 -0.931,-0.42436 -0.287,-0.09921 -0.761,-0.22596 -1.047,-0.27557 -0.287,-0.0496 -0.783,-0.08818 -1.103,-0.08267 -0.319,0.00552 -0.788,0.0441 -1.047,0.08267 z m -32.853,2.2597 c 0.199,-0.04409 0.447,-0.09369 0.552,-0.10471 0.104,-0.01654 0.38,-0.02205 0.606,-0.01103 0.226,0.01103 0.573,0.06063 0.771,0.11023 0.199,0.0496 0.557,0.18738 0.8,0.30312 0.242,0.11573 0.595,0.34721 0.782,0.50703 0.193,0.15983 0.474,0.45193 0.634,0.65033 0.154,0.19841 0.391,0.5842 0.518,0.85425 0.127,0.27005 0.281,0.65584 0.331,0.85424 0.077,0.27559 0.099,0.56769 0.104,1.29519 0,0.7385 -0.022,1.0195 -0.099,1.3227 -0.055,0.2149 -0.226,0.6338 -0.369,0.9369 -0.149,0.3031 -0.375,0.6779 -0.507,0.8377 -0.132,0.1598 -0.386,0.4133 -0.568,0.5676 -0.182,0.1544 -0.518,0.3748 -0.744,0.4961 -0.226,0.1157 -0.612,0.2645 -0.854,0.3306 -0.298,0.0772 -0.606,0.1158 -0.965,0.1158 -0.286,0 -0.65,-0.0276 -0.799,-0.0551 -0.154,-0.0276 -0.424,-0.1048 -0.606,-0.1654 -0.182,-0.0661 -0.49,-0.2094 -0.689,-0.3196 -0.215,-0.1213 -0.551,-0.3913 -0.832,-0.6724 -0.298,-0.2976 -0.551,-0.6173 -0.689,-0.8598 -0.116,-0.2149 -0.281,-0.5731 -0.358,-0.7991 -0.083,-0.226 -0.176,-0.6007 -0.215,-0.8267 -0.044,-0.2535 -0.055,-0.6779 -0.039,-1.1022 0.022,-0.5181 0.061,-0.8102 0.171,-1.16842 0.077,-0.27005 0.237,-0.67789 0.358,-0.90936 0.116,-0.23698 0.337,-0.5897 0.48,-0.7826 0.149,-0.1984 0.446,-0.48499 0.656,-0.64482 0.209,-0.15982 0.573,-0.38027 0.799,-0.48499 0.226,-0.10471 0.573,-0.23147 0.771,-0.27556 z M 26.0545,6.77364 c 0.1873,-0.07165 0.496,-0.1488 0.6889,-0.17636 0.1873,-0.02756 0.5621,-0.03858 0.8377,-0.02204 0.2755,0.01653 0.6834,0.07715 0.9093,0.13227 0.226,0.05511 0.6118,0.20391 0.8543,0.31965 0.2535,0.12676 0.5897,0.35272 0.7936,0.5401 0.1929,0.17636 0.4464,0.44641 0.5566,0.59522 0.1103,0.15431 0.2701,0.40783 0.3528,0.56766 0.0771,0.15431 0.2149,0.50152 0.3031,0.77158 0.1323,0.37476 0.1763,0.65028 0.2259,1.27858 0.0496,0.6669 0.0441,0.8818 -0.0275,1.2842 -0.0441,0.2645 -0.1323,0.6337 -0.1984,0.8266 -0.0606,0.1874 -0.1984,0.5016 -0.3031,0.7 -0.0992,0.1984 -0.3032,0.5015 -0.4465,0.6723 -0.1488,0.1709 -0.4243,0.4409 -0.6227,0.5953 -0.1984,0.1598 -0.5567,0.3802 -0.7992,0.496 -0.2425,0.1157 -0.6117,0.2535 -0.8266,0.3031 -0.2315,0.0606 -0.6063,0.0937 -0.937,0.0937 -0.3968,0.0055 -0.6723,-0.0331 -0.992,-0.1158 -0.2425,-0.0716 -0.6393,-0.2259 -0.8818,-0.3527 -0.2645,-0.1378 -0.5952,-0.3747 -0.8212,-0.5897 -0.2094,-0.1984 -0.4739,-0.4795 -0.5842,-0.6338 -0.1102,-0.1488 -0.2755,-0.4133 -0.3582,-0.5787 -0.0827,-0.1653 -0.1984,-0.4409 -0.259,-0.6062 -0.0551,-0.1653 -0.1433,-0.4685 -0.1819,-0.6724 -0.0496,-0.2149 -0.0827,-0.6613 -0.0827,-1.0471 0,-0.3858 0.0386,-0.8432 0.0827,-1.0637 0.0441,-0.21492 0.1323,-0.53457 0.1929,-0.71644 0.0606,-0.18188 0.226,-0.52908 0.3693,-0.77158 0.1598,-0.27556 0.4188,-0.60624 0.6999,-0.8818 0.248,-0.2425 0.5952,-0.52908 0.7771,-0.6338 0.1818,-0.10471 0.485,-0.248 0.6779,-0.31414 z M 128.217,6.61381 c -0.21,0.03858 -0.546,0.13779 -0.744,0.22046 -0.199,0.07715 -0.491,0.22596 -0.656,0.32516 -0.16,0.09369 -0.452,0.34721 -0.65,0.56215 -0.221,0.23698 -0.43,0.53459 -0.541,0.77157 -0.104,0.21494 -0.226,0.54562 -0.27,0.74402 -0.049,0.19841 -0.088,0.3913 -0.088,0.42988 0,0.0496 0.761,0.06614 3.61,0.06614 h 3.61 c 0,-0.36374 -0.044,-0.62829 -0.105,-0.82669 -0.06,-0.19841 -0.204,-0.50704 -0.325,-0.68891 -0.116,-0.18187 -0.375,-0.47948 -0.573,-0.66135 -0.193,-0.18187 -0.54,-0.42988 -0.766,-0.54561 -0.226,-0.12125 -0.568,-0.26454 -0.766,-0.31966 -0.199,-0.05511 -0.584,-0.11573 -0.855,-0.12676 -0.292,-0.01653 -0.65,0.00551 -0.881,0.0496 z"
     fill="#FCFCFD"
     id="path1"
     style="fill:#001587;fill-opacity:1" />
</svg>
